<?xml version="1.0" standalone="no"?>
<!DOCTYPE svg PUBLIC "-//W3C//DTD SVG 20010904//EN"
 "http://www.w3.org/TR/2001/REC-SVG-20010904/DTD/svg10.dtd">
<svg version="1.0" xmlns="http://www.w3.org/2000/svg"
 width="975.000000pt" height="975.000000pt" viewBox="0 0 975.000000 975.000000"
 preserveAspectRatio="xMidYMid meet">
<metadata>
Created by potrace 1.11, written by Peter Selinger 2001-2013
</metadata>
<g transform="translate(0.000000,975.000000) scale(0.100000,-0.100000)"
fill="#000000" stroke="none">
<path d="M3336 9681 c-1 -4 -2 -690 -2 -1526 l1 -1520 1578 0 1577 0 0 1525 0
1526 -1576 0 c-866 0 -1576 -2 -1578 -5z"/>
<path d="M906 7143 c-10 -32 -19 -65 -22 -73 -3 -13 9 -16 80 -16 52 0 83 4
81 11 -10 37 -18 55 -25 55 -4 0 -26 18 -48 40 -22 22 -42 40 -44 40 -2 0 -12
-26 -22 -57z"/>
<path d="M2530 7060 c-9 -6 -10 -10 -3 -10 6 0 15 5 18 10 8 12 4 12 -15 0z"/>
<path d="M1586 6473 c-9 -10 -493 -17 -1101 -18 l-451 0 -2 -1300 c-2 -715 -4
-1410 -5 -1545 -1 -135 2 -258 6 -273 10 -35 36 -45 135 -52 42 -3 95 -8 117
-10 22 -2 74 -7 115 -10 41 -3 91 -8 110 -10 32 -4 77 -9 200 -20 25 -2 87 -7
138 -10 51 -4 103 -8 115 -11 12 -2 56 -7 97 -10 41 -3 91 -7 110 -9 19 -3 69
-7 110 -11 41 -3 91 -7 110 -10 19 -2 64 -6 100 -9 36 -3 83 -7 105 -9 142
-15 247 -23 395 -31 58 -4 125 -8 150 -11 25 -2 77 -6 115 -9 39 -2 106 -7
150 -10 103 -8 190 -14 293 -20 46 -2 87 -7 91 -9 4 -3 53 -8 107 -11 54 -3
146 -8 203 -11 58 -3 145 -7 195 -10 50 -2 132 -6 181 -8 50 -3 149 -7 220
-11 72 -3 180 -8 240 -10 287 -13 503 -17 895 -17 622 0 1157 10 1193 21 18 5
59 12 92 15 34 3 77 12 98 21 35 15 37 14 52 -8 8 -13 35 -38 59 -55 28 -20
48 -44 55 -65 9 -29 13 -122 26 -557 2 -80 6 -155 9 -167 5 -23 13 -138 21
-283 8 -152 25 -348 41 -485 3 -22 7 -65 9 -95 3 -30 7 -71 10 -90 2 -19 7
-66 11 -104 3 -38 7 -78 9 -88 2 -11 7 -47 10 -81 15 -156 24 -207 39 -229 10
-13 12 257 12 1195 l-1 1211 -135 1 -135 0 -3 74 c-2 41 1 77 7 80 5 3 776 6
1713 5 936 0 1708 1 1713 3 7 2 10 504 9 1561 -1 856 -2 1562 -3 1568 0 7 -8
15 -17 18 -9 4 -1843 6 -4076 6 -2715 0 -4057 3 -4053 10 7 12 2 13 -9 3z"/>
<path d="M3075 2840 c-3 -11 -4 -24 -1 -28 8 -14 16 -162 21 -437 6 -288 10
-349 30 -550 3 -33 8 -98 10 -145 2 -47 7 -105 9 -130 3 -25 8 -79 11 -120 3
-41 7 -95 10 -120 2 -25 7 -79 11 -120 3 -41 8 -88 10 -105 2 -16 6 -52 9 -80
3 -27 7 -60 10 -73 2 -13 7 -51 10 -85 3 -34 8 -69 11 -78 2 -9 6 -37 9 -62 2
-26 6 -50 8 -54 3 -5 8 -35 11 -69 7 -65 13 -102 23 -149 4 -16 7 -39 8 -50 1
-11 7 -45 13 -75 18 -84 24 -124 24 -140 0 -35 20 -90 36 -99 17 -9 3085 -13
3109 -4 7 3 11 8 9 12 -2 3 -7 41 -11 84 -3 43 -8 86 -10 95 -2 15 -6 48 -21
221 -3 43 -9 103 -19 191 -3 25 -7 71 -10 103 -2 32 -7 78 -10 103 -7 62 -13
118 -21 199 -10 101 -11 122 -18 205 -4 41 -9 86 -11 100 -2 14 -7 57 -11 95
-3 39 -8 88 -10 110 -4 44 -12 121 -19 200 -3 28 -7 68 -10 90 -2 22 -7 67
-10 100 -3 33 -7 74 -9 90 -2 17 -7 62 -11 100 -3 39 -8 90 -11 114 -4 25 -8
65 -9 90 -7 94 -16 197 -21 221 -2 14 -7 60 -10 103 -3 44 -8 86 -9 95 -2 10
-4 25 -4 35 -1 18 -10 18 -143 12 -79 -3 -159 -8 -178 -10 -86 -9 -346 -16
-827 -21 -662 -9 -812 -8 -1118 0 -244 6 -294 9 -460 22 -44 3 -107 7 -140 9
-128 7 -240 17 -246 21 -4 2 -10 -5 -14 -16z"/>
</g>
</svg>
